<svg xmlns="http://www.w3.org/2000/svg" width="21" height="18" viewBox="0 0 21 18">
    <path id="like"
        d="M15.128.008a5.938,5.938,0,0,0-4.163,1.679l-.459.446-.467-.454a6,6,0,0,0-8.317,0,5.6,5.6,0,0,0,0,8.087L9.97,17.777l.017.017a.757.757,0,0,0,1.043,0l8.243-8.015a5.6,5.6,0,0,0,0-8.087A5.89,5.89,0,0,0,15.128.008Zm3.1,8.743-7.715,7.506L2.778,8.739a4.189,4.189,0,0,1-.009-6.046A4.482,4.482,0,0,1,8.988,2.7l.991.964a.785.785,0,0,0,1.052,0l.987-.959a4.482,4.482,0,0,1,6.218,0,4.189,4.189,0,0,1-.009,6.046Z"
        fill="#4a00e0" />
</svg>
