<svg id="Layer_2" data-name="Layer 2" xmlns="http://www.w3.org/2000/svg" xmlns:xlink="http://www.w3.org/1999/xlink" width="19.71" height="13.41" viewBox="0 0 19.71 13.41">
  <defs>
    <linearGradient id="linear-gradient" x1="-0.171" y1="1.148" x2="1.167" y2="-0.378" gradientUnits="objectBoundingBox">
      <stop offset="0" stop-color="#4a00e0"/>
      <stop offset="1" stop-color="#8e2de2"/>
    </linearGradient>
  </defs>
  <g id="Layer_1" data-name="Layer 1">
    <path id="Path_10" data-name="Path 10" d="M17.3,0H2.41A2.41,2.41,0,0,0,0,2.41V11a2.41,2.41,0,0,0,2.41,2.41H17.3A2.41,2.41,0,0,0,19.71,11V2.41A2.41,2.41,0,0,0,17.3,0ZM16.12,1.57l-6.27,4-6.27-4ZM17.3,11.81H2.41A.85.85,0,0,1,1.57,11V2.45l7.8,5h0a.67.67,0,0,0,.18.07h.21a.83.83,0,0,0,.22,0h0a.62.62,0,0,0,.19-.07h0l7.8-5V11A.85.85,0,0,1,17.3,11.81Z" fill="url(#linear-gradient)"/>
  </g>
</svg>
