<svg xmlns="http://www.w3.org/2000/svg" xmlns:xlink="http://www.w3.org/1999/xlink" width="28.014" height="14" viewBox="0 0 28.014 14">
  <defs>
    <linearGradient id="linear-gradient" x1="-0.07" y1="-0.267" x2="1.004" y2="-1.539" gradientUnits="objectBoundingBox">
      <stop offset="0" stop-color="#4a00e0"/>
      <stop offset="1" stop-color="#8e2de2"/>
    </linearGradient>
    <linearGradient id="linear-gradient-2" x1="-0.207" y1="-4.338" x2="1.125" y2="-4.733" xlink:href="#linear-gradient"/>
  </defs>
  <g id="Layer_2" data-name="Layer 2" transform="translate(0.007)">
    <g id="Layer_1" data-name="Layer 1">
      <path id="Path_11" data-name="Path 11" d="M25.43,0H2.57A2.81,2.81,0,0,0,0,3v8a2.81,2.81,0,0,0,2.57,3H25.43A2.81,2.81,0,0,0,28,11V3a2.81,2.81,0,0,0-2.57-3Zm.86,11a.94.94,0,0,1-.86,1H2.57a.94.94,0,0,1-.86-1V3a.94.94,0,0,1,.86-1H25.43a.94.94,0,0,1,.86,1Z" fill="url(#linear-gradient)"/>
      <path id="Path_12" data-name="Path 12" d="M16,6.52l-.59-1L14.59,6V5H13.41V6l-.82-.48-.59,1,.82.48L12,7.48l.59,1L13.41,8V9h1.18V8l.82.48.59-1L15.18,7Z" fill="url(#linear-gradient-2)"/>
      <path id="Path_13" data-name="Path 13" d="M24,6.52l-.59-1L22.59,6V5H21.41V6l-.82-.48-.59,1,.82.48L20,7.48l.59,1L21.41,8V9h1.18V8l.82.48.59-1L23.18,7Z" fill="url(#linear-gradient-2)"/>
      <path id="Path_14" data-name="Path 14" d="M8,6.52l-.59-1L6.59,6V5H5.41V6l-.82-.48L4,6.52,4.82,7,4,7.48l.59,1L5.41,8V9H6.59V8l.82.48.59-1L7.18,7Z" fill="url(#linear-gradient-2)"/>
    </g>
  </g>
</svg>
