<svg xmlns="http://www.w3.org/2000/svg" xmlns:xlink="http://www.w3.org/1999/xlink" width="16.051" height="20.011" viewBox="0 0 16.051 20.011">
  <defs>
    <linearGradient id="linear-gradient" x1="0.031" y1="4.466" x2="0.916" y2="3.052" gradientUnits="objectBoundingBox">
      <stop offset="0" stop-color="#4a00e0"/>
      <stop offset="1" stop-color="#8e2de2"/>
    </linearGradient>
    <linearGradient id="linear-gradient-2" x1="0.259" y1="2.072" x2="0.611" y2="0.323" xlink:href="#linear-gradient"/>
  </defs>
  <g id="Layer_2" data-name="Layer 2" transform="translate(0 0.01)">
    <g id="Layer_1" data-name="Layer 1">
      <path id="Path_1" data-name="Path 1" d="M8.06,8.79A4.4,4.4,0,1,0,3.66,4.4a4.4,4.4,0,0,0,4.4,4.39Zm0-6.69a2.3,2.3,0,1,1-2.3,2.3,2.3,2.3,0,0,1,2.3-2.3Z" fill="url(#linear-gradient)"/>
      <path id="Path_2" data-name="Path 2" d="M8.06,10.89A8.07,8.07,0,0,0,0,19a1,1,0,0,0,1.05,1h14a1,1,0,0,0,1-1.05,8.07,8.07,0,0,0-7.99-8.06Zm-5.87,7a6,6,0,0,1,11.73,0Z" fill="url(#linear-gradient-2)"/>
    </g>
  </g>
</svg>
