<svg id="Layer_2" data-name="Layer 2" xmlns="http://www.w3.org/2000/svg" xmlns:xlink="http://www.w3.org/1999/xlink" width="80.5" height="80.5" viewBox="0 0 80.5 80.5">
  <defs>
    <linearGradient id="linear-gradient" x1="0.997" y1="0.622" x2="-0.419" y2="-0.561" gradientUnits="objectBoundingBox">
      <stop offset="0" stop-color="#4a00e0"/>
      <stop offset="1" stop-color="#8e2de2"/>
    </linearGradient>
  </defs>
  <g id="Layer_1" data-name="Layer 1">
    <path id="Path_1" data-name="Path 1" d="M80.5,0V80.5A90.52,90.52,0,0,1,0,0Z" fill="url(#linear-gradient)"/>
    <g id="Layer_2-2" data-name="Layer 2">
      <g id="Layer_1-2" data-name="Layer 1-2">
        <path id="Path_2" data-name="Path 2" d="M59,32.7h-.72a8.16,8.16,0,0,0-.84-2l.54-.54a1.28,1.28,0,0,0,0-1.81l-1.22-1.2a1.28,1.28,0,0,0-1.81,0l-.54.54a8.16,8.16,0,0,0-2-.84V26.1a1.28,1.28,0,0,0-1.28-1.28H49.41a1.28,1.28,0,0,0-1.28,1.28v.72a8.16,8.16,0,0,0-2,.84l-.54-.54a1.28,1.28,0,0,0-1.81,0l-1.2,1.22a1.28,1.28,0,0,0,0,1.81l.54.54a8.16,8.16,0,0,0-.84,2h-.75A1.28,1.28,0,0,0,40.25,34h0v1.68a1.28,1.28,0,0,0,1.28,1.28h.72a8.16,8.16,0,0,0,.84,2l-.54.54a1.28,1.28,0,0,0,0,1.81l1.19,1.19a1.28,1.28,0,0,0,1.81,0l.54-.54a8.16,8.16,0,0,0,2,.84v.75a1.28,1.28,0,0,0,1.27,1.29h1.73a1.28,1.28,0,0,0,1.28-1.28h0v-.72a8.16,8.16,0,0,0,2-.84l.54.54a1.28,1.28,0,0,0,1.81,0l1.19-1.19a1.29,1.29,0,0,0,.37-.91,1.26,1.26,0,0,0-.37-.9L57.37,39a8.16,8.16,0,0,0,.84-2H59a1.28,1.28,0,0,0,1.29-1.27V34A1.28,1.28,0,0,0,59,32.7Zm-8.72,6.69a4.57,4.57,0,1,1,4.57-4.57h0a4.59,4.59,0,0,1-4.6,4.57Z" fill="#fff"/>
      </g>
    </g>
  </g>
</svg>
