<svg width="19" height="19" viewBox="0 0 19 19" fill="none" xmlns="http://www.w3.org/2000/svg">
<path d="M9.5 0C4.26192 0 0 4.26207 0 9.5C0 14.7379 4.26207 19 9.5 19C14.7379 19 19 14.7379 19 9.5C19 4.26207 14.7379 0 9.5 0ZM9.5 17.2727C5.2138 17.2727 1.72727 13.7854 1.72727 9.5C1.72727 5.21459 5.2138 1.72727 9.5 1.72727C13.7862 1.72727 17.2727 5.21459 17.2727 9.5C17.2727 13.7854 13.7862 17.2727 9.5 17.2727Z" fill="url(#paint0_linear_340_150)"/>
<path d="M9.50036 7.88232C9.02285 7.88232 8.63672 8.26922 8.63672 8.74596V13.0641C8.63672 13.5409 9.02285 13.9278 9.50036 13.9278C9.97786 13.9278 10.364 13.5409 10.364 13.0641V8.74596C10.364 8.26922 9.97786 7.88232 9.50036 7.88232V7.88232Z" fill="url(#paint1_linear_340_150)"/>
<path d="M9.50036 5.0722C9.02285 5.0722 8.63672 5.4591 8.63672 5.93584V6.19493C8.63672 6.67167 9.02285 7.05857 9.50036 7.05857C9.97786 7.05857 10.364 6.67167 10.364 6.19493V5.93584C10.364 5.4591 9.97786 5.0722 9.50036 5.0722Z" fill="url(#paint2_linear_340_150)"/>
<defs>
<linearGradient id="paint0_linear_340_150" x1="1.46154" y1="-3.65385" x2="15.3462" y2="21.9231" gradientUnits="userSpaceOnUse">
<stop stop-color="#4A00E0"/>
<stop offset="1" stop-color="#8E2DE2"/>
</linearGradient>
<linearGradient id="paint1_linear_340_150" x1="8.76959" y1="6.71974" x2="13.1121" y2="9.00528" gradientUnits="userSpaceOnUse">
<stop stop-color="#4A00E0"/>
<stop offset="1" stop-color="#8E2DE2"/>
</linearGradient>
<linearGradient id="paint2_linear_340_150" x1="8.76959" y1="4.69021" x2="10.3247" y2="7.1813" gradientUnits="userSpaceOnUse">
<stop stop-color="#4A00E0"/>
<stop offset="1" stop-color="#8E2DE2"/>
</linearGradient>
</defs>
</svg>
