<svg id="Layer_2" data-name="Layer 2" xmlns="http://www.w3.org/2000/svg" xmlns:xlink="http://www.w3.org/1999/xlink" width="19" height="19" viewBox="0 0 19 19">
  <defs>
    <linearGradient id="linear-gradient" x1="0.113" y1="1.117" x2="0.844" y2="-0.229" gradientUnits="objectBoundingBox">
      <stop offset="0" stop-color="#4a00e0"/>
      <stop offset="1" stop-color="#8e2de2"/>
    </linearGradient>
    <linearGradient id="linear-gradient-2" x1="-0.837" y1="-0.065" x2="1.692" y2="-0.442" xlink:href="#linear-gradient"/>
    <linearGradient id="linear-gradient-3" x1="0.023" y1="3.722" x2="0.924" y2="2.465" xlink:href="#linear-gradient"/>
  </defs>
  <g id="Layer_1" data-name="Layer 1">
    <path id="Path_3" data-name="Path 3" d="M9.5,0A9.5,9.5,0,1,0,19,9.5,9.5,9.5,0,0,0,9.5,0Zm0,17.27A7.77,7.77,0,1,1,17.27,9.5,7.77,7.77,0,0,1,9.5,17.27Z" fill="url(#linear-gradient)"/>
    <path id="Path_4" data-name="Path 4" d="M9.5,7.88a.86.86,0,0,0-.86.87v4.31a.86.86,0,1,0,1.72,0V8.75a.86.86,0,0,0-.86-.87Z" fill="url(#linear-gradient-2)"/>
    <path id="Path_5" data-name="Path 5" d="M9.5,5.07a.86.86,0,0,0-.86.87v.25a.86.86,0,1,0,1.72,0V5.94a.86.86,0,0,0-.86-.87Z" fill="url(#linear-gradient-3)"/>
  </g>
</svg>
