<svg width="195" height="41" viewBox="0 0 195 41" fill="none" xmlns="http://www.w3.org/2000/svg">
    <path
        d="M29.0415 38.7599C26.1678 40.251 22.5922 40.9966 18.3146 40.9966C12.7795 40.9966 8.34274 39.2483 5.00423 35.7517C1.66572 32.2551 -0.00235687 27.6673 2.49934e-06 21.9883C2.49934e-06 15.8846 1.87688 10.9512 5.63065 7.18795C9.38441 3.42475 14.1267 1.54315 19.8577 1.54315C23.5501 1.54315 26.6173 2.06693 29.0592 3.11449V9.39632C26.4781 7.86659 23.5267 7.07457 20.5265 7.10655C16.3929 7.10655 13.0438 8.42898 10.4792 11.0738C7.91452 13.7187 6.63102 17.2507 6.62866 21.6698C6.62866 25.8742 7.82604 29.2245 10.2208 31.7207C12.6156 34.2169 15.7665 35.4627 19.6736 35.458C23.2764 35.458 26.399 34.6062 29.0415 32.9028V38.7599Z"
        fill="black" />
    <path d="M41.2477 40.3453H35.0367V0H41.2371L41.2477 40.3453Z" fill="black" />
    <path
        d="M72.5155 40.3453H66.3398V36.0453H66.2337C64.4429 39.3484 61.6565 41 57.8744 41C51.4333 41 48.2128 37.1306 48.2128 29.3919V13.0945H54.3884V28.7513C54.3884 33.6494 56.2759 36.0984 60.0509 36.0984C60.9064 36.1189 61.7557 35.9477 62.5364 35.5974C63.3172 35.2472 64.0097 34.7267 64.5632 34.0741C65.7429 32.7245 66.3328 30.955 66.3328 28.7655V13.0945H72.5155V40.3453Z"
        fill="black" />
    <path
        d="M103.089 28.4045H84.5093C84.5801 30.9244 85.3563 32.8673 86.838 34.2334C88.3197 35.5995 90.3558 36.2825 92.9464 36.2825C95.8289 36.2946 98.639 35.3802 100.962 33.6742V38.6537C98.478 40.2132 95.1937 40.9942 91.1097 40.9965C87.0987 40.9965 83.9537 39.7578 81.6745 37.2805C79.3954 34.8032 78.2546 31.3207 78.2523 26.8332C78.2523 22.5863 79.5086 19.1299 82.0214 16.4638C83.2059 15.1682 84.6534 14.1406 86.2672 13.4497C87.8809 12.7588 89.6236 12.4205 91.3786 12.4575C95.1064 12.4575 97.9896 13.6561 100.028 16.0532C102.067 18.4504 103.087 21.7771 103.089 26.0334V28.4045ZM97.1261 24.0373C97.1095 21.8219 96.5869 20.096 95.5583 18.8597C94.5296 17.6234 93.114 17.0076 91.3114 17.0123C90.4649 17.0005 89.6254 17.1674 88.8479 17.5022C88.0703 17.837 87.3722 18.3322 86.7991 18.9553C85.5675 20.2506 84.809 21.9446 84.5235 24.0373H97.1261Z"
        fill="black" />
    <path
        d="M109.12 40.3452V2.18356H121.234C124.926 2.18356 127.85 2.99047 130.004 4.60428C132.158 6.21809 133.236 8.32147 133.239 10.9144C133.285 12.9554 132.637 14.9518 131.402 16.5769C130.108 18.2199 128.328 19.4117 126.316 19.9815V20.0912C128.93 20.3814 131.029 21.3523 132.612 23.0038C134.195 24.6554 134.981 26.7788 134.969 29.3742C135.005 30.9089 134.674 32.4299 134.002 33.8103C133.33 35.1907 132.338 36.3902 131.108 37.3087C128.536 39.3331 125.289 40.3452 121.365 40.3452H109.12ZM115.43 7.25503V18.127H119.528C121.729 18.127 123.455 17.608 124.706 16.5698C125.956 15.5317 126.582 14.0642 126.582 12.1672C126.582 8.89952 124.399 7.26565 120.034 7.26565L115.43 7.25503ZM115.43 23.202V35.2985H120.834C123.193 35.2985 125.016 34.7523 126.302 33.66C127.588 32.5676 128.232 31.0646 128.234 29.1512C128.234 25.1922 125.493 23.2127 120.01 23.2127L115.43 23.202Z"
        fill="black" />
    <path
        d="M152.887 40.9965C148.683 40.9965 145.324 39.7225 142.812 37.1743C140.299 34.6262 139.047 31.25 139.057 27.0456C139.057 22.4636 140.364 18.888 142.978 16.3187C145.592 13.7493 149.119 12.4623 153.56 12.4576C157.83 12.4576 161.145 13.7092 163.505 16.2125C165.864 18.7158 167.053 22.1852 167.072 26.6209C167.072 30.9715 165.79 34.454 163.225 37.0682C160.66 39.6824 157.214 40.9918 152.887 40.9965ZM153.181 17.3839C150.767 17.3839 148.86 18.2262 147.458 19.9108C146.057 21.5954 145.359 23.9241 145.363 26.8969C145.363 29.7565 146.071 32.0061 147.487 33.6459C148.902 35.2857 150.802 36.1114 153.185 36.1232C155.617 36.1232 157.485 35.3152 158.787 33.699C160.089 32.0828 160.742 29.7848 160.744 26.8049C160.744 23.8085 160.092 21.4928 158.787 19.8577C157.482 18.2227 155.617 17.3981 153.192 17.3839H153.181Z"
        fill="black" />
    <path
        d="M194.761 13.0945L185.684 26.8968L194.648 40.3453H187.492L182.7 31.9188C182.399 31.4021 182.046 30.7473 181.639 29.9475H181.532C181.462 30.1056 181.089 30.7627 180.414 31.9188L175.537 40.3453H168.406L177.661 26.9924L168.884 13.0945H176.072L180.786 21.9599C181.14 22.6146 181.493 23.2905 181.823 23.9807H181.908L187.998 13.0945H194.761Z"
        fill="black" />
</svg>
