<svg width="11" height="11" viewBox="0 0 11 11" fill="none" xmlns="http://www.w3.org/2000/svg">
    <path d="M0.960938 8.22364L7.77072 1.41367L9.58599 3.22894L2.77602 10.0387L0.960938 8.22364Z"
        fill="black" />
    <path
        d="M10.3653 2.45068L10.6246 2.19138C10.867 1.94895 11.0005 1.62676 11.0005 1.28384C11.0005 0.940919 10.867 0.618721 10.6246 0.376294C10.3821 0.133867 10.0597 0 9.71683 0C9.37391 0 9.05171 0.133683 8.8091 0.376111L8.5498 0.635409L10.3653 2.45068Z"
        fill="black" />
    <path
        d="M0.751742 8.53217L0.00942303 10.7588C-0.0125825 10.8246 0.00465517 10.8974 0.0538008 10.9464C0.0886428 10.9812 0.135588 11.0001 0.18345 11.0001C0.202888 11.0001 0.222326 10.997 0.241398 10.9905L2.4678 10.2484L0.751742 8.53217Z"
        fill="black" />
    <path d="M8.03125 1.15395L8.29073 0.89447L10.106 2.70974L9.84652 2.96922L8.03125 1.15395Z"
        fill="black" />
</svg>
