<svg xmlns="http://www.w3.org/2000/svg" xmlns:xlink="http://www.w3.org/1999/xlink" width="11" height="15" viewBox="0 0 11 15">
  <defs>
    <clipPath id="clip-path">
      <rect id="Rectangle_1" data-name="Rectangle 1" width="11" height="15" fill="#fff"/>
    </clipPath>
  </defs>
  <g id="location_pin_svg_1" data-name="location pin svg 1" clip-path="url(#clip-path)">
    <path id="Path_3" data-name="Path 3" d="M11,5.019a4.615,4.615,0,0,1-.535,2.163c-.006.013-.014.025-.021.038L6.289,14.561a.846.846,0,0,1-.327.32.962.962,0,0,1-.924,0,.846.846,0,0,1-.327-.32L.555,7.219.532,7.176A4.615,4.615,0,0,1,0,5.019,4.636,4.636,0,0,1,.4,3.081,5.007,5.007,0,0,1,1.588,1.433,5.557,5.557,0,0,1,3.381.33a5.988,5.988,0,0,1,4.239,0,5.557,5.557,0,0,1,1.792,1.1A5.007,5.007,0,0,1,10.6,3.081,4.637,4.637,0,0,1,11,5.019Z" fill="#b6b6b6"/>
  </g>
</svg>
