<svg xmlns="http://www.w3.org/2000/svg" width="21.968" height="16.361" viewBox="0 0 21.968 16.361">
  <g id="Layer_2" data-name="Layer 2" transform="translate(-0.035 0.001)">
    <g id="Layer_1" data-name="Layer 1">
      <path id="Path_1" data-name="Path 1" d="M18.59,7.18H7a1,1,0,1,0,0,2H18.59l-1.3,1.29a1,1,0,1,0,1.42,1.42l3-3,.06-.07h0V8.76h0a.16.16,0,0,0,0-.07h0V8.61h0V8.53h0a.24.24,0,0,0,0-.08h0V8.18L22,8h0a.31.31,0,0,0,0-.08h0V7.84h0V7.76h0a.25.25,0,0,0,0-.07h0l-.06-.08-3-3a1,1,0,1,0-1.42,1.42Z" fill="#ff3c3c"/>
      <path id="Path_2" data-name="Path 2" d="M8.18,16.36A8.15,8.15,0,0,0,15,12.74a1,1,0,1,0-1.66-1.12,6.18,6.18,0,1,1,0-6.89A1,1,0,0,0,15,3.61,8.18,8.18,0,1,0,8.18,16.36Z" fill="#ff3c3c"/>
    </g>
  </g>
</svg>
