<svg id="Layer_2" data-name="Layer 2" xmlns="http://www.w3.org/2000/svg" xmlns:xlink="http://www.w3.org/1999/xlink" width="21.73" height="23" viewBox="0 0 21.73 23">
  <defs>
    <linearGradient id="linear-gradient" x1="0.114" y1="1.37" x2="0.881" y2="0.07" gradientUnits="objectBoundingBox">
      <stop offset="0" stop-color="#4a00e0"/>
      <stop offset="1" stop-color="#8e2de2"/>
    </linearGradient>
    <linearGradient id="linear-gradient-2" x1="0.119" y1="3.467" x2="0.936" y2="2.194" xlink:href="#linear-gradient"/>
    <linearGradient id="linear-gradient-3" x1="0.234" y1="7.286" x2="0.893" y2="5.918" xlink:href="#linear-gradient"/>
    <linearGradient id="linear-gradient-4" x1="0.487" y1="0.683" x2="0.512" y2="-1" xlink:href="#linear-gradient"/>
    <linearGradient id="linear-gradient-5" x1="0.487" y1="3.966" x2="0.512" y2="2.283" xlink:href="#linear-gradient"/>
  </defs>
  <g id="Layer_1" data-name="Layer 1">
    <path id="Path_15" data-name="Path 15" d="M19.27,0H6.39A2.71,2.71,0,0,0,3.92,2.71V17.63H.72a.76.76,0,0,0-.51.22.72.72,0,0,0-.21.51v2.18A2.7,2.7,0,0,0,2.68,23H15.12A2.72,2.72,0,0,0,17,22.2a2.68,2.68,0,0,0,.8-1.91V5.39H21a.72.72,0,0,0,.51-.21.76.76,0,0,0,.22-.51v-2A2.75,2.75,0,0,0,19.27,0ZM2.44,21.53a1.23,1.23,0,0,1-.69-.39,1.34,1.34,0,0,1-.31-.72V19.08h11v1.24a2.61,2.61,0,0,0,.2,1l.1.2Zm14-19.11V20h0v.37a1.31,1.31,0,0,1-.34.86,1.07,1.07,0,0,1-.41.28,1.16,1.16,0,0,1-.49.1,1.22,1.22,0,0,1-1.2-.82,1.52,1.52,0,0,1-.1-.47v-2a.72.72,0,0,0-.21-.51.76.76,0,0,0-.51-.22H5.37V2.71a1.25,1.25,0,0,1,.33-.84,1.23,1.23,0,0,1,.8-.4H16.68a2.91,2.91,0,0,0-.29,1ZM20.29,4H17.81V2.59a2.09,2.09,0,0,1,.11-.43,1.3,1.3,0,0,1,.32-.42,1.4,1.4,0,0,1,.47-.24,1.2,1.2,0,0,1,.2,0h.24a1.21,1.21,0,0,1,.81.4,1.25,1.25,0,0,1,.33.84Z" fill="url(#linear-gradient)"/>
    <path id="Path_16" data-name="Path 16" d="M13.68,4.16A7.64,7.64,0,0,1,11.2,2.77a.49.49,0,0,0-.58,0h0A8.09,8.09,0,0,1,8.1,4.16a.46.46,0,0,0-.22.17.44.44,0,0,0-.09.27c0,2,.42,3.39,1.33,4.19a2.66,2.66,0,0,0,1.72.72h.05a2.62,2.62,0,0,0,1.75-.69C13.54,8,14,6.55,14,4.6a.44.44,0,0,0-.09-.27.47.47,0,0,0-.23-.17ZM12,8.11a1.64,1.64,0,0,1-1.09.47h-.06a1.68,1.68,0,0,1-1.12-.47,4.53,4.53,0,0,1-1-3.2A8.08,8.08,0,0,0,10.87,3.7,7.46,7.46,0,0,0,13,4.91,4.52,4.52,0,0,1,12,8.11Z" fill="url(#linear-gradient-2)"/>
    <path id="Path_17" data-name="Path 17" d="M12.27,5.58,11,7.43a.29.29,0,0,1-.12.1.35.35,0,0,1-.17,0,.32.32,0,0,1-.14,0,.27.27,0,0,1-.12-.09l-.67-.93a.36.36,0,1,1,.57-.43l.36.5,1-1.44A.42.42,0,0,1,11.93,5a.35.35,0,0,1,.26.07.33.33,0,0,1,.14.24.34.34,0,0,1-.06.26Z" fill="url(#linear-gradient-3)"/>
    <path id="Path_18" data-name="Path 18" d="M15.13,14.47a.71.71,0,0,1-.21.5.72.72,0,0,1-.51.22H7.3a.72.72,0,0,1-.72-.72.73.73,0,0,1,.72-.73h7.11a.76.76,0,0,1,.51.22.72.72,0,0,1,.21.51Z" fill="url(#linear-gradient-4)"/>
    <path id="Path_19" data-name="Path 19" d="M15.13,12.09a.71.71,0,0,1-.21.5.72.72,0,0,1-.51.22H7.3a.72.72,0,0,1-.72-.72.74.74,0,0,1,.21-.51.72.72,0,0,1,.51-.22h7.11a.76.76,0,0,1,.51.22.74.74,0,0,1,.21.51Z" fill="url(#linear-gradient-5)"/>
  </g>
</svg>
