<svg width="22" height="22" viewBox="0 0 22 22" fill="none" xmlns="http://www.w3.org/2000/svg">
    <path
        d="M11.7223 14.6593C11.3492 14.3312 10.7423 14.3806 10.4141 14.7538L6.95267 18.6558V3.06118C6.95267 2.5487 6.5301 2.12613 6.01762 2.12613C5.50515 2.12613 5.08258 2.5487 5.08258 3.06118V18.6558L1.62111 14.7538C1.24799 14.3806 0.686062 14.3312 0.312943 14.6593C-0.0601766 15.0325 -0.109626 15.5944 0.218539 15.9675L5.31634 21.6722C5.69845 22.1442 6.37276 22.0723 6.67396 21.6722L11.8167 15.9675C12.1449 15.5989 12.0999 14.9875 11.7223 14.6593Z"
        fill="#7A7A7A" />
    <path
        d="M21.7337 6.0554L16.6809 0.350715C16.2313 -0.103322 15.6694 -0.130294 15.2783 0.350715L10.1355 6.0554C9.80737 6.42852 9.85682 7.0354 10.2299 7.36356C10.8053 7.8221 11.3853 7.50742 11.5381 7.26916L14.9996 3.36714V18.9168C14.9996 19.4293 15.4221 19.8518 15.9346 19.8518C16.4471 19.8518 16.8697 19.4787 16.8697 18.9617V3.37163L20.3311 7.27365C20.7043 7.64677 21.2662 7.69622 21.6393 7.36806C22.0124 6.99044 22.0619 6.42852 21.7337 6.0554Z"
        fill="#7A7A7A" />
</svg>
